<?xml version="1.0" encoding="UTF-8" standalone="no"?><!DOCTYPE svg PUBLIC "-//W3C//DTD SVG 1.1//EN" "http://www.w3.org/Graphics/SVG/1.1/DTD/svg11.dtd"><svg width="100%" height="100%" viewBox="0 0 600 600" version="1.1" xmlns="http://www.w3.org/2000/svg" xmlns:xlink="http://www.w3.org/1999/xlink" xml:space="preserve" xmlns:serif="http://www.serif.com/" style="fill-rule:evenodd;clip-rule:evenodd;stroke-miterlimit:1.41421;"><path d="M587.222,300.003c0,158.624 -128.596,287.219 -287.226,287.219c-158.63,0 -287.218,-128.595 -287.218,-287.219c0,-158.63 128.588,-287.225 287.218,-287.225c158.63,0 287.226,128.595 287.226,287.225Z" style="fill:none;stroke:#3b629f;stroke-width:16.67px;"/><path d="M252.402,301.436l0,175.917c0,2.528 2.049,4.576 4.577,4.576l65.332,0c2.528,0 4.576,-2.048 4.576,-4.576l0,-178.782l47.365,0c2.377,0 4.361,-1.826 4.562,-4.196l4.554,-53.867c0.229,-2.679 -1.876,-4.97 -4.562,-4.97l-51.919,0l0,-38.22c0,-8.959 7.262,-16.221 16.22,-16.221l36.502,0c2.535,0 4.583,-2.048 4.583,-4.576l0,-53.867c0,-2.535 -2.048,-4.583 -4.583,-4.583l-61.674,0c-36.193,0 -65.533,29.34 -65.533,65.533l0,51.934l-32.67,0c-2.527,0 -4.576,2.048 -4.576,4.583l0,53.867c0,2.528 2.049,4.583 4.576,4.583l32.67,0l0,2.865Z" style="fill:#3b629f;"/></svg>