<?xml version="1.0" encoding="UTF-8" standalone="no"?><!DOCTYPE svg PUBLIC "-//W3C//DTD SVG 1.1//EN" "http://www.w3.org/Graphics/SVG/1.1/DTD/svg11.dtd"><svg width="100%" height="100%" viewBox="0 0 600 600" version="1.1" xmlns="http://www.w3.org/2000/svg" xmlns:xlink="http://www.w3.org/1999/xlink" xml:space="preserve" xmlns:serif="http://www.serif.com/" style="fill-rule:evenodd;clip-rule:evenodd;stroke-linejoin:round;stroke-miterlimit:1.41421;"><path d="M448.829,369.74c0,41.423 -33.582,75.005 -75.011,75.005l-144.14,0c-41.429,0 -75.011,-33.582 -75.011,-75.005l0,-144.153c0,-41.422 33.582,-75.004 75.011,-75.004l144.14,0c41.429,0 75.011,33.582 75.011,75.004l0,144.153Zm34.205,-144.153c0,-60.316 -48.893,-109.209 -109.216,-109.209l-144.14,0c-60.317,0 -109.216,48.893 -109.216,109.209l0,144.153c0,60.317 48.899,109.21 109.216,109.21l144.14,0c60.323,0 109.216,-48.893 109.216,-109.21l0,-144.153Zm-180.671,131.771c-31.625,0 -57.354,-25.729 -57.354,-57.355c0,-31.625 25.729,-57.354 57.354,-57.354c31.633,0 57.355,25.729 57.355,57.354c0,31.626 -25.722,57.355 -57.355,57.355Zm0,-146.896c-49.371,0 -89.534,40.17 -89.534,89.541c0,49.372 40.163,89.542 89.534,89.542c49.372,0 89.542,-40.17 89.542,-89.542c0,-49.371 -40.17,-89.541 -89.542,-89.541Zm94.769,-27.33c-11.774,0 -21.317,9.543 -21.317,21.31c0,11.773 9.543,21.316 21.317,21.316c11.766,0 21.309,-9.543 21.309,-21.316c0,-11.767 -9.543,-21.31 -21.309,-21.31Zm-97.136,-143.824c-143.742,0 -260.689,116.946 -260.689,260.695c0,143.743 116.947,260.689 260.689,260.689c143.75,0 260.697,-116.946 260.697,-260.689c0,-143.749 -116.947,-260.695 -260.697,-260.695Zm0,548.748c-158.826,0 -288.052,-129.219 -288.052,-288.053c0,-158.833 129.226,-288.059 288.052,-288.059c158.834,0 288.06,129.226 288.06,288.059c0,158.834 -129.226,288.053 -288.06,288.053Z" style="fill:url(#_Linear1);"/><defs><linearGradient id="_Linear1" x1="0" y1="0" x2="1" y2="0" gradientUnits="userSpaceOnUse" gradientTransform="matrix(714.663,-608.527,608.527,714.663,67.253,498.187)"><stop offset="0" style="stop-color:#f8dd88;stop-opacity:1"/><stop offset="0.2" style="stop-color:#fdb951;stop-opacity:1"/><stop offset="0.3" style="stop-color:#f58364;stop-opacity:1"/><stop offset="0.4" style="stop-color:#f0587f;stop-opacity:1"/><stop offset="0.5" style="stop-color:#d94698;stop-opacity:1"/><stop offset="0.6" style="stop-color:#a24d9d;stop-opacity:1"/><stop offset="0.7" style="stop-color:#794ea0;stop-opacity:1"/><stop offset="1" style="stop-color:#4a5ba9;stop-opacity:1"/></linearGradient></defs></svg>