<?xml version="1.0" encoding="UTF-8" standalone="no"?><!DOCTYPE svg PUBLIC "-//W3C//DTD SVG 1.1//EN" "http://www.w3.org/Graphics/SVG/1.1/DTD/svg11.dtd"><svg width="100%" height="100%" viewBox="0 0 600 600" version="1.1" xmlns="http://www.w3.org/2000/svg" xmlns:xlink="http://www.w3.org/1999/xlink" xml:space="preserve" xmlns:serif="http://www.serif.com/" style="fill-rule:evenodd;clip-rule:evenodd;stroke-miterlimit:1.41421;"><path d="M583.138,299.996c0,156.375 -126.767,283.142 -283.141,283.142c-156.368,0 -283.135,-126.767 -283.135,-283.142c0,-156.374 126.767,-283.134 283.135,-283.134c156.374,0 283.141,126.76 283.141,283.134Z" style="fill:none;stroke:#ee322d;stroke-width:16.67px;"/><path d="M353.415,306.032l-79.482,43.593c-3.459,1.863 -6.565,-0.636 -6.565,-4.561l0,-89.479c0,-3.981 3.205,-6.48 6.664,-4.511l80.026,45.887c3.537,2.019 2.937,7.13 -0.643,9.071Zm125.737,-51.407c0,-42.441 -34.401,-76.842 -76.836,-76.842l-199.295,0c-42.442,0 -76.843,34.401 -76.843,76.842l0,93.397c0,42.442 34.401,76.842 76.843,76.842l199.295,0c42.435,0 76.836,-34.4 76.836,-76.842l0,-93.397Z" style="fill:#ee322d;fill-rule:nonzero;"/></svg>